<svg xmlns="http://www.w3.org/2000/svg" xmlns:xlink="http://www.w3.org/1999/xlink" viewBox="0 0 479.52 188.43"><defs><style>.cls-1{isolation:isolate;}.cls-2{fill:#1a171b;}.cls-15,.cls-3{fill:#63ae24;}.cls-4{fill:#d9dadb;}.cls-5{fill:#b1b3b4;}.cls-6{fill:#c6c7c8;}.cls-7{fill:#87888a;}.cls-8{fill:url(#中間色_3);}.cls-9{fill:url(#linear-gradient);}.cls-10{fill:url(#linear-gradient-2);}.cls-11{fill:#f8f5e2;mix-blend-mode:overlay;}.cls-12{fill:#666;}.cls-13{fill:none;stroke:#58585a;stroke-miterlimit:10;stroke-width:3.24px;}.cls-14{fill:#58585a;}.cls-15{mix-blend-mode:multiply;}.cls-16{fill:#162731;}.cls-17{fill:url(#白目);}.cls-18{fill:#9c9e9f;}.cls-19{fill:url(#白目-2);}</style><linearGradient id="中間色_3" x1="19.09" y1="99.19" x2="44.2" y2="83.7" gradientUnits="userSpaceOnUse"><stop offset="0" stop-color="#fff"/><stop offset="0.15" stop-color="#939393"/><stop offset="0.44" stop-color="#fff"/><stop offset="0.74" stop-color="#d6d6d6"/><stop offset="1" stop-color="#fff"/></linearGradient><linearGradient id="linear-gradient" x1="25.38" y1="99.25" x2="45.69" y2="99.25" gradientUnits="userSpaceOnUse"><stop offset="0" stop-color="#ed7c59"/><stop offset="1" stop-color="#e5352d"/></linearGradient><linearGradient id="linear-gradient-2" x1="236.61" y1="57.54" x2="236.94" y2="70.03" gradientUnits="userSpaceOnUse"><stop offset="0" stop-color="#cfdc81"/><stop offset="1" stop-color="#63ae24"/></linearGradient><linearGradient id="白目" x1="51.12" y1="150.4" x2="111.82" y2="150.4" gradientUnits="userSpaceOnUse"><stop offset="0.03" stop-color="#a7a6a3"/><stop offset="0.14" stop-color="#b1b1b2"/><stop offset="0.22" stop-color="#bbbcc1"/><stop offset="0.35" stop-color="#acafb4"/><stop offset="0.6" stop-color="#858b90"/><stop offset="0.72" stop-color="#70787d"/><stop offset="1" stop-color="#999fa4"/></linearGradient><linearGradient id="白目-2" x1="326.53" y1="150.4" x2="387.22" y2="150.4" xlink:href="#白目"/></defs><g class="cls-1"><g id="レイヤー_1" data-name="レイヤー 1"><path class="cls-2" d="M479.5,101.71a4.25,4.25,0,0,1-3.85,4.65L457,108.1a4.28,4.28,0,0,1-4.65-3.86l-6-64.37a4.27,4.27,0,0,1,3.86-4.65l18.62-1.74a4.28,4.28,0,0,1,4.65,3.86Z"/><path class="cls-2" d="M415.91,145.33a4.27,4.27,0,0,1-4.28,4.27H32.41a4.28,4.28,0,0,1-4.28-4.27V93.86a4.28,4.28,0,0,1,4.28-4.27H411.63a4.27,4.27,0,0,1,4.28,4.27Z"/><path class="cls-3" d="M452,60.37l-16.56-54S433.29,0,421,0H202s-9.09,1.07-15,12.83L154.4,58.77l-125,18.17L19.22,87.63v55h8.91l16-33.65c3.65-9,10.73-13.36,17.81-13.36h47.54c7.09,0,9.17,3.87,12.83,12.82l12.58,34.19H302.14l16-33.65c3.66-9,10.73-13.36,17.81-13.36h47.55c7.08,0,9.16,3.87,12.83,12.82l12.58,34.19h41.45s5.34-35.79,5.34-49.68S452,60.37,452,60.37Z"/><path class="cls-4" d="M39,115.94H19a4.23,4.23,0,0,0-4.07-3.2H4.27A4.27,4.27,0,0,0,0,117V130.9H33.91Z"/><path class="cls-5" d="M0,130.9v7.48a4.27,4.27,0,0,0,4.27,4.27H29.91l4-11.75Z"/><polygon class="cls-6" points="468.02 126.63 453.14 126.63 453.14 122.35 401.77 122.35 404.79 130.9 468.02 130.9 468.02 126.63"/><polygon class="cls-7" points="404.79 130.9 408.94 142.66 468.02 142.66 468.02 130.9 404.79 130.9"/><path class="cls-8" d="M49.68,88.16s-7,8.54-13.36,12.82-16.82,6.41-16.82,6.41l-.28-19.76,2.2-2.32h25Z"/><path class="cls-9" d="M45.69,92.67H25.38v13.16S37.92,102.76,45.69,92.67Z"/><polygon class="cls-10" points="38.99 75.54 434.89 64.65 162.47 64.65 154.4 58.77 38.99 75.54"/><polygon class="cls-11" points="154.03 92.43 134.59 85.5 49.68 85.31 135.25 81.2 154.77 88.16 443.98 88.16 154.03 92.43"/><polygon class="cls-6" points="334.49 9.62 267.65 9.62 267.65 52.54 338.61 52.54 334.49 9.62"/><polygon class="cls-5" points="267.65 52.54 267.65 64.65 339.78 64.65 338.61 52.54 267.65 52.54"/><path class="cls-6" d="M253.9,9.62H212.1s-15.56-1-21.37,8.55l-20.9,34.37h77.6Z"/><polygon class="cls-5" points="169.83 52.54 162.47 64.65 245.61 64.65 247.43 52.54 169.83 52.54"/><path class="cls-6" d="M427.41,9.62h-63s-7.17.56-5,7.38c3.19,9.94,7.81,27.66,10.17,35.54h70.77Z"/><path class="cls-5" d="M369.56,52.54c.41,1.38.76,2.48,1,3.15,2.34,6.29,5.74,9,10.35,9H444l-3.65-12.11Z"/><path class="cls-12" d="M109.51,95.64H62c-7.08,0-14.16,4.41-17.81,13.36l-16,33.65h6.33l15.63-31.23c2.4-5.87,6.84-9.37,11.88-9.37h47.54c2.59,0,3.28,0,6.82,8.62l11.76,32h6.83l-12.58-34.19C118.68,99.51,116.6,95.64,109.51,95.64Z"/><path class="cls-6" d="M128.28,106c-3.38-8.26-6.87-16.8-18.77-16.8H62c-10.28,0-19.37,6.64-23.6,17L21.1,142.65h7l16-33.65c3.65-9,10.73-13.36,17.81-13.36h47.54c7.09,0,9.17,3.87,12.83,12.82l12.58,34.19h6.92Z"/><path class="cls-13" d="M28.6,142.65l16-33.65c3.65-9,10.72-13.36,17.8-13.36H110c7.08,0,9.17,3.87,12.82,12.82l12.58,34.19"/><path class="cls-12" d="M383.59,95.64H336c-7.09,0-14.15,4.41-17.81,13.36l-16,33.65h6.32l15.64-31.23c2.4-5.87,6.84-9.37,11.88-9.37h47.55c2.58,0,3.27,0,6.8,8.62l11.76,32H409l-12.58-34.19C392.75,99.51,390.67,95.64,383.59,95.64Z"/><path class="cls-6" d="M402.34,106c-3.38-8.26-6.87-16.8-18.75-16.8H336c-10.28,0-19.38,6.64-23.6,17l-17.28,36.41h7l16-33.65c3.66-9,10.72-13.36,17.81-13.36h47.55c7.08,0,9.16,3.87,12.82,12.82L409,142.65h6.92Z"/><path class="cls-13" d="M302.66,142.65l16-33.65c3.66-9,10.73-13.36,17.81-13.36h47.55c7.08,0,9.16,3.87,12.82,12.82l12.58,34.19"/><polygon class="cls-14" points="189.47 47.07 185.93 49.47 193.94 61.26 190.57 64.65 201.41 64.65 189.47 47.07"/><path class="cls-14" d="M277.82,32.06a4.28,4.28,0,0,0-4.28-4.28H269.8a4.17,4.17,0,0,0-2.67,1V64.65h10.69V55.57a4.15,4.15,0,0,0-.66-2.14,4.15,4.15,0,0,0,.66-2.14Z"/><rect class="cls-15" x="160.04" y="64.65" width="4.85" height="78.01"/><rect class="cls-15" x="245" y="64.65" width="4.85" height="78.01"/><rect class="cls-15" x="337.35" y="64.65" width="4.85" height="23.51"/><path class="cls-16" d="M119.51,150.39a38,38,0,1,1-38-38A38,38,0,0,1,119.51,150.39Z"/><path class="cls-17" d="M81.47,120a30.36,30.36,0,1,0,30.35,30.36A30.35,30.35,0,0,0,81.47,120Zm21.79,17.56c-4.17,4-14.5,10.89-18.24,8.17s-.32-14.87,2.24-20A25.24,25.24,0,0,1,103.26,137.6ZM75.6,125.82c2.55,5.11,6,17.21,2.22,20s-14-4.08-18.18-8.12A25.33,25.33,0,0,1,75.6,125.82ZM56.17,150.4c0-.51,0-1,.07-1.51,5.87-.74,17.84-.17,19.23,4.14s-7.41,11.39-12.67,14.39A25.18,25.18,0,0,1,56.17,150.4Zm25.3,25.29a25.14,25.14,0,0,1-9.8-2c1.23-5.92,5.37-16.55,9.79-16.55s8.56,10.65,9.78,16.56A25.21,25.21,0,0,1,81.47,175.69Zm18.66-8.25c-5.26-3-14-10.21-12.7-14.41s13.4-4.89,19.26-4.13c0,.49.07,1,.07,1.5A25.18,25.18,0,0,1,100.13,167.44Z"/><path class="cls-18" d="M81.47,178.54a28.14,28.14,0,1,1,28.14-28.14A28.18,28.18,0,0,1,81.47,178.54ZM73.6,161.85a47.31,47.31,0,0,0-4.1,11.42,2.22,2.22,0,0,0,1.31,2.49,27.55,27.55,0,0,0,21.29,0,2.23,2.23,0,0,0,1.32-2.49,47.76,47.76,0,0,0-4.16-11.54A47,47,0,0,0,99,169.36a2.17,2.17,0,0,0,1.1.3,2.28,2.28,0,0,0,1.64-.72A27.51,27.51,0,0,0,109,150.4c0-.43,0-.86-.06-1.28a2.62,2.62,0,0,0-2-2.41,45.33,45.33,0,0,0-14.38.61,45.7,45.7,0,0,0,12.21-8.13,2.2,2.2,0,0,0,.36-2.72,27.58,27.58,0,0,0-17.39-12.83,3.07,3.07,0,0,0-.51-.06,2.22,2.22,0,0,0-2,1.22,49.06,49.06,0,0,0-3.86,12.55,49.29,49.29,0,0,0-3.84-12.53,2.22,2.22,0,0,0-2-1.21,2.29,2.29,0,0,0-.52,0,27.67,27.67,0,0,0-17.35,12.87,2.2,2.2,0,0,0,.38,2.71A45.53,45.53,0,0,0,70.2,147.3a41,41,0,0,0-9.06-.9,42.52,42.52,0,0,0-5.17.29A2.25,2.25,0,0,0,54,148.76C54,149.54,54,150,54,150.4a27.46,27.46,0,0,0,7.21,18.52,2.18,2.18,0,0,0,1.64.72,2.32,2.32,0,0,0,1.1-.29A51.62,51.62,0,0,0,73.6,161.85ZM85.83,157a5.7,5.7,0,0,0-8.66-.07,6.43,6.43,0,0,0,.43-4.55,7.06,7.06,0,0,0-4.13-4,10.1,10.1,0,0,0,2.14.24,5.83,5.83,0,0,0,3.51-1,6.23,6.23,0,0,0,2.3-3.9,6.25,6.25,0,0,0,2.31,3.9,5.8,5.8,0,0,0,3.5,1,10.4,10.4,0,0,0,2.28-.27,7,7,0,0,0-4.18,4A6.31,6.31,0,0,0,85.83,157Z"/><path class="cls-16" d="M394.91,150.39a38,38,0,1,1-38-38A38,38,0,0,1,394.91,150.39Z"/><path class="cls-19" d="M356.87,120a30.36,30.36,0,1,0,30.35,30.36A30.35,30.35,0,0,0,356.87,120Zm21.79,17.56c-4.17,4-14.5,10.89-18.24,8.17s-.32-14.87,2.24-20A25.24,25.24,0,0,1,378.66,137.6ZM351,125.82c2.55,5.11,6,17.21,2.22,20s-14-4.08-18.17-8.12A25.29,25.29,0,0,1,351,125.82ZM331.57,150.4c0-.51,0-1,.07-1.51,5.87-.74,17.84-.17,19.24,4.14s-7.42,11.39-12.68,14.39A25.18,25.18,0,0,1,331.57,150.4Zm25.3,25.29a25.14,25.14,0,0,1-9.8-2c1.23-5.92,5.37-16.55,9.79-16.55s8.56,10.65,9.79,16.56A25.29,25.29,0,0,1,356.87,175.69Zm18.66-8.25c-5.26-3-14-10.21-12.7-14.41s13.4-4.89,19.26-4.13c0,.49.07,1,.07,1.5A25.18,25.18,0,0,1,375.53,167.44Z"/><path class="cls-18" d="M356.87,178.54A28.14,28.14,0,1,1,385,150.4,28.18,28.18,0,0,1,356.87,178.54ZM349,161.85a47.31,47.31,0,0,0-4.1,11.42,2.22,2.22,0,0,0,1.31,2.49,27.55,27.55,0,0,0,21.29,0,2.23,2.23,0,0,0,1.32-2.49,47.66,47.66,0,0,0-4.15-11.54,46.77,46.77,0,0,0,9.76,7.61,2.19,2.19,0,0,0,1.1.3,2.28,2.28,0,0,0,1.64-.72,27.46,27.46,0,0,0,7.21-18.54c0-.43,0-.86-.05-1.28a2.64,2.64,0,0,0-1.95-2.41,45.39,45.39,0,0,0-14.39.61,45.7,45.7,0,0,0,12.21-8.13,2.2,2.2,0,0,0,.36-2.72,27.58,27.58,0,0,0-17.39-12.83,2.84,2.84,0,0,0-.51-.06,2.22,2.22,0,0,0-2,1.22,49.06,49.06,0,0,0-3.86,12.55A49.29,49.29,0,0,0,353,124.82a2.22,2.22,0,0,0-2-1.21,2.29,2.29,0,0,0-.52,0,27.67,27.67,0,0,0-17.35,12.87,2.21,2.21,0,0,0,.38,2.71,45.7,45.7,0,0,0,12.09,8.06,41,41,0,0,0-9.06-.9,42.52,42.52,0,0,0-5.17.29,2.26,2.26,0,0,0-1.94,2.07c-.05.78-.07,1.21-.07,1.64a27.45,27.45,0,0,0,7.2,18.52,2.18,2.18,0,0,0,1.64.72,2.29,2.29,0,0,0,1.1-.29A51.62,51.62,0,0,0,349,161.85ZM361.23,157a5.7,5.7,0,0,0-8.66-.07,6.43,6.43,0,0,0,.43-4.55,7,7,0,0,0-4.13-4,10.17,10.17,0,0,0,2.14.24,5.83,5.83,0,0,0,3.51-1,6.23,6.23,0,0,0,2.3-3.9,6.25,6.25,0,0,0,2.31,3.9,5.82,5.82,0,0,0,3.5,1,10.33,10.33,0,0,0,2.28-.27,7,7,0,0,0-4.18,4A6.31,6.31,0,0,0,361.23,157Z"/><rect class="cls-2" x="170.96" y="65.01" width="10.33" height="9.26"/><path class="cls-7" d="M179.15,47.2a4.27,4.27,0,0,0-4.27,4.27V63.94a4.27,4.27,0,0,0,4.27,4.27h2.14v-21Z"/><path class="cls-6" d="M183.43,47.2h-2.14v21h2.14a4.27,4.27,0,0,0,4.27-4.27V51.47A4.27,4.27,0,0,0,183.43,47.2Z"/><path class="cls-2" d="M51.12,71.6a33.58,33.58,0,0,1-7.69,0c-3.58-.67-8.09-3.18-10.21-4.22a8.66,8.66,0,0,0,3.64-3c3.21-4.54,6.15-5.88,4.27-9.62a12,12,0,0,0-6.67,0C31,55.83,30,59.13,28.6,62.15a7.81,7.81,0,0,0,0,6l1.58,1.37s8.65,4.5,10.47,5.85,6.76,1.2,9.16,1.2S54.7,74.8,51.12,71.6Z"/></g></g></svg>